<?xml version="1.0" standalone="no"?>
<!-- Generator: Adobe Illustrator 22.1.0, SVG Export Plug-In . SVG Version: 6.00 Build 0)  -->
<svg version="1.1" id="with_liquid" xmlns="http://www.w3.org/2000/svg" xmlns:xlink="http://www.w3.org/1999/xlink" x="0px"
	 y="0px" viewBox="0 0 369 345" width="100%" height="100%" xml:space="preserve">
<style type="text/css">
	.st0{fill:#ffffff;}
</style>
<path class="st0" d="M360.4,211.6c-0.9-7.9-2.8-15.8-4.7-23.6c-3.4-14-9.6-26.8-17.5-38.7c-8.3-12.6-18.5-23.5-30.1-33
	c-9.1-7.5-18.8-13.8-29.4-18.9c-0.9-0.4-1.8-1.9-1.8-2.8c-0.1-10.2-0.2-20.5,0-30.7c0-1.9,1.1-4,2.1-5.8c8.6-16.8,17.3-33.5,26-50.3
	c1.8-3.4,0.6-5.4-3.1-5.2c-3,0.2-6.1,0.6-9.1,1.1c-7.8,1.3-15.5,2.6-23.3,3.9c-8.8,1.5-17.6,3.2-26.4,4.7c-5,0.8-10,1.4-15,2.3
	c-4.9,0.8-9.8,1.8-14.7,2.7c-4.6,0.8-9.2,1.5-13.7,2.3c-5.4,0.9-10.8,1.8-16.2,2.7c-4.8,0.8-9.7,1.5-14.5,2.3c-6,1-12,1.8-17.8,3.2
	c-3.3,0.8-5.7,3.4-6.5,6.9c-0.7,3-1.5,3.7-4.4,2.4c-3-1.3-6.1-2.6-8.8-4.4c-7.6-5-15-10.3-22.6-15.4C97.6,9.9,85.2,6.5,71.9,7.6
	C54,9.3,39.5,17.4,29.4,32.5c-4.1,6-6.3,12.8-7.9,19.9c-2.5,11-2.1,22.2-1.7,33.3c0.3,8.8,1.9,17.5,2.5,26.3
	c0.7,11,1.4,22.1,1.4,33.1c0,6.6-0.8,13.3-2.3,19.7c-2.3,9.5-5.4,18.9-8.4,28.2c-1.5,4.8-4,9.4-3.3,14.6c0.3,2.3,1.2,4.7,2.6,6.5
	c2.3,3,5.8,3.3,9.1,1.3c4.8-3,7.7-7.7,9.9-12.6c4.7-10.4,9.1-20.9,13.1-31.6c2.1-5.7,3.1-11.8,4.4-17.8c3-13.5,3.9-27.1,3.2-40.9
	c-0.5-9.2-1.2-18.5-1.3-27.7c0-7.9,1.1-15.8,5.3-22.7c2.9-4.7,7.1-7.6,12.6-9c8.8-2.2,16.2,1,23.1,5.8c9.4,6.4,16.5,15.1,22.9,24.4
	c3.1,4.4,7.4,7.2,12.5,7.9c6.3,0.9,12.7,0.8,19.1,1.2c0.9,0.1,2.3,0.6,2.5,1.2c0.4,1.4,0.3,2.8-1.5,3.7
	c-9.8,4.6-18.8,10.5-27.3,17.1c-17.3,13.4-30.8,30-40.6,49.4c-4.2,8.3-7.3,17.2-9.7,26.2c-4,14.9-5.5,30.1-4.7,45.4
	c0.4,7.4,2.2,14.7,3.7,22c2.1,9.9,6.1,19,11,27.8c12.6,22.4,30.5,39,53.9,49.5c10.7,4.8,22.1,7.2,33.8,7.3c15.2,0.1,30.5,0,45.7,0
	c0,0,0,0,0,0c13.2,0,26.3,0.2,39.5-0.1c7.9-0.2,15.8-0.6,23.5-2c11.3-2.1,21.7-6.9,31.4-13.2c7.7-4.9,14.9-10.7,21.2-17.3
	c11.5-12.1,20.2-25.9,25.8-41.6c2.4-6.9,3.8-14.2,5.4-21.3C362.2,235.2,361.8,223.4,360.4,211.6z M120.6,313.1
	c-10.8-8.2-19.8-18.6-27.1-30.9c-4.6-7.8-8.3-16-10.4-24.9c-0.7-3.1-1.5-6.3-2.1-9.4c70.5-49.2,151.3-83.9,237.9-100.3
	c2,2.5,3.9,5,5.7,7.7c7.3,10.7,13.1,22.1,16.4,34.7c1.8,7,3.7,14,4.6,21.2c0.1,0.5,0.1,1.1,0.2,1.6
	C252.9,223.3,187.4,254.5,120.6,313.1z"/>
</svg>
